<?xml version="1.0" encoding="utf-8"?>
<!-- Generator: Adobe Illustrator 25.0.1, SVG Export Plug-In . SVG Version: 6.00 Build 0)  -->
<svg version="1.0" id="katman_1" xmlns="http://www.w3.org/2000/svg" xmlns:xlink="http://www.w3.org/1999/xlink" x="0px" y="0px"
	 viewBox="0 0 600 400" style="enable-background:new 0 0 600 400;" xml:space="preserve">
<style type="text/css">
	.st0{fill-rule:evenodd;clip-rule:evenodd;fill:#DA3743;}
	.st1{fill-rule:evenodd;clip-rule:evenodd;fill:#2D333F;}
</style>
<path class="st0" d="M63.2,200.1c0-7.3,5.9-13.3,13.1-13.3c7.3,0,13.1,6,13.1,13.3c0,7.3-5.9,13.3-13.1,13.3
	C69.1,213.4,63.2,207.5,63.2,200.1L63.2,200.1z M155.5,213.4c-7.3,0-13.1-6-13.1-13.3c0-7.3,5.9-13.3,13.1-13.3
	c7.3,0,13.1,6,13.1,13.3C168.6,207.5,162.7,213.4,155.5,213.4z M155.5,146.9c-29,0-52.5,23.8-52.5,53.2c0,29.4,23.5,53.2,52.5,53.2
	c29,0,52.5-23.8,52.5-53.2C208,170.8,184.5,146.9,155.5,146.9L155.5,146.9z"/>
<path class="st1" d="M531,196c0.8,0,1.3-0.4,1.3-1.1c0-0.6-0.3-1-1.3-1h-0.9v2.1H531z M529,192.9h2.3c1.3,0,2.4,0.5,2.4,2
	c0,0.7-0.5,1.5-1.1,1.7l1.4,2.6h-1.4l-1.1-2.2h-1.3v2.2H529V192.9z M535.8,196.1c0-2.9-2-5-4.6-5c-2.6,0-4.6,2.1-4.6,5
	c0,3,2,5,4.6,5C533.8,201.1,535.8,199.1,535.8,196.1z M525.4,196.1c0-3.6,2.6-6.1,5.8-6.1c3.2,0,5.8,2.5,5.8,6.1
	c0,3.6-2.6,6.1-5.8,6.1C528,202.2,525.4,199.8,525.4,196.1z M486.8,221c0.8,0,1.4-0.7,1.4-1.4v-5.3c0-0.8-0.6-1.4-1.4-1.4h-0.2
	c-0.6,0-1.3-0.6-1.3-1.3v-0.2v-31.4c0-0.7-0.7-1.4-1.4-1.4h-5.3c-0.7,0-1.4,0.7-1.4,1.4v35.1l0,0.9c0,2.6,2.6,5.2,5.2,5.2L486.8,221
	z M255.7,186.7c7.1,0,13.2,6.1,13.2,13.4c0,7.3-5.9,13.3-13.2,13.3c-7.2,0-13.1-6-13.1-13.3C242.5,192.7,248.4,186.7,255.7,186.7z
	 M255.7,178.3c-11.8,0-21.4,9.8-21.4,21.8c0,12.2,9.4,21.7,21.4,21.7c12.1,0,21.5-9.5,21.5-21.7
	C277.2,188.1,267.5,178.3,255.7,178.3z M426.8,212.3c-0.4,1.1-2.7,3.2-5.4,3.2c-2.8,0-4.3-1.7-4.3-4.3c0-2.7,1.9-4.3,5.3-4.3
	c2.4,0,4.4,0.9,4.4,0.9V212.3z M423.3,190c-4.9,0-9.6,1.2-10.2,1.5c-0.6,0.2-1.2,0.7-1,1.8l0.6,3.4c0.1,0.9,0.7,1.6,1.7,1.3
	c1.8-0.5,5.7-1.1,8.4-1.1c3.2,0,4.3,1.8,4.2,5.7c0,0-2.7-0.9-5.8-0.9c-7.6,0-11.9,4.1-11.9,9.5c0,6.5,4.2,10.4,10.1,10.4
	c4.7,0,7.7-2.1,9.4-3.8v1.6c0,0.8,0.6,1.4,1.4,1.4h0.5c0.1,0,0.1,0,0.2,0h2.2c0.8,0,1.4-0.7,1.4-1.4v-16.4
	C434.6,194.9,432.6,190,423.3,190z M368.8,190c-5.7,0-8.5,3.1-9.6,4.4v-2.3c0-0.8-0.6-1.4-1.4-1.4h-3.4c-0.7,0-1.4,0.6-1.4,1.4v27.4
	c0,0.8,0.7,1.4,1.4,1.4h4.8c1.4,0,1.9-0.3,1.9-1.4v-17.3c0.7-2.1,2.6-4.7,6.5-4.7c3.6,0,5.2,2.4,5.2,6.4v15.7c0,0.8,0.6,1.4,1.4,1.4
	h5.3c0.7,0,1.4-0.7,1.4-1.4v-15.7C380.8,196.5,378.4,190,368.8,190z M297.4,214.2c-3.8,0-6.2-1.7-6.2-1.7v-10.8
	c0.6-1.7,2.7-4.2,6.6-4.2c4.7,0,7.1,4.1,7.1,8.4C304.9,210.1,302.4,214.2,297.4,214.2z M298.9,190c-6.2,0-9.6,4.3-9.8,4.5v-2.4
	c0-0.8-0.6-1.4-1.4-1.4h-3.2c-0.8,0-1.4,0.7-1.4,1.4v39.8c0,0.7,0.6,1.4,1.4,1.4h5.3c0.7,0,1.4-0.7,1.4-1.4v-11.4
	c1.4,0.5,4.2,1.2,7.2,1.2c9,0,14.9-7,14.9-15.8C313.3,196.7,307.1,190,298.9,190z M512.8,202c-0.1-3-2.5-5.3-5.8-5.3
	c-3.6,0-6,2.2-6.4,5.3H512.8z M507.2,190c7.8,0,13.7,5.8,13.7,14.1c0,0.5-0.1,1.5-0.1,2c-0.1,0.8-0.8,1.4-1.4,1.4h-19.2
	c0.1,3.7,3.1,7,7.5,7c3,0,5.1-1.1,6.4-2.2c0.7-0.6,1.5-0.7,1.9,0l2.5,3.4c0.5,0.6,0.6,1.3-0.1,2c-2.6,2.2-6.3,4.1-11.2,4.1
	c-8.9,0-15.2-7.2-15.2-15.9C492.1,197.2,498.3,190,507.2,190z M456.5,214.2c-3.9,0-6-2.5-6.6-4.2v-10.8c0,0,2.5-1.7,6.2-1.7
	c4.9,0,7.5,4.1,7.5,8.3C463.5,210,461.1,214.2,456.5,214.2z M457.2,190c-3,0-6,0.7-7.3,1.3v-11.6c0-0.7-0.6-1.4-1.4-1.4h-5.3
	c-0.7,0-1.4,0.7-1.4,1.4v39.8c0,0.8,0.7,1.4,1.4,1.4h2.3c0,0,0.1,0,0.1,0h0.6c0.8,0,1.4-0.7,1.4-1.4v-2.2l0-0.1c0,0,3.4,4.5,10,4.5
	c8.2,0,14.1-7.2,14.1-15.9C471.7,196.9,466.1,190,457.2,190z M411.3,178.3h-30.5c-0.7,0-1.2,0.6-1.2,1.2v5.4c0,0.7,0.5,1.2,1.2,1.2
	h11v33.6c0,0.7,0.6,1.2,1.2,1.2h6c0.6,0,1.2-0.6,1.2-1.2v-33.6h11c0.7,0,1.2-0.6,1.2-1.2v-5.4C412.5,178.9,412,178.3,411.3,178.3z
	 M338.7,202c-0.1-3-2.5-5.3-5.8-5.3c-3.6,0-6,2.2-6.4,5.3H338.7z M333.1,190c7.8,0,13.7,5.8,13.7,14.1c0,0.5-0.1,1.5-0.1,2
	c-0.1,0.8-0.8,1.4-1.4,1.4h-19.2c0.1,3.7,3.1,7,7.5,7c3,0,5.1-1.1,6.4-2.2c0.7-0.6,1.5-0.7,1.9,0l2.5,3.4c0.5,0.6,0.6,1.3-0.1,2
	c-2.6,2.2-6.3,4.1-11.2,4.1c-8.9,0-15.2-7.2-15.2-15.9C318,197.2,324.2,190,333.1,190L333.1,190z"/>
</svg>
